# xmcd CD database file
#
# Track frame offsets:
#	150
#	15798
#	33507
#	56175
#	73053
#	88859
#	107922
#	122198
#	141194
#	159842
#	181244
#	211800
#
# Disc length: 4440 seconds
#
# Revision: 0
# Processed by: cddbd v1.5.1PL0 Copyright (c) Steve Scherf et al.
# Submitted via: CDex 1.51
#
DISCID=a211560c
DTITLE=Rin' - 時空
DYEAR=2004
DGENRE=JPop
TTITLE0=時空
TTITLE1=Sakitama〜幸魂〜
TTITLE2=八千代ノ風
TTITLE3=普遍
TTITLE4=雅
TTITLE5=weakness
TTITLE6=道心
TTITLE7=Smile on (English ver.)
TTITLE8=Will
TTITLE9=サイの神
TTITLE10=Eternal
TTITLE11=@
EXTD=YEAR: 2004
EXTT0=
EXTT1=
EXTT2=
EXTT3=
EXTT4=
EXTT5=
EXTT6=
EXTT7=
EXTT8=
EXTT9=
EXTT10=
EXTT11=
PLAYORDER=
